<svg xmlns="http://www.w3.org/2000/svg" viewBox="0 0 128 128" fill="none">
  <defs>
    <linearGradient id="bg" x1="18" y1="14" x2="106" y2="118" gradientUnits="userSpaceOnUse">
      <stop stop-color="#17181b" />
      <stop offset="1" stop-color="#0b0c0e" />
    </linearGradient>
    <linearGradient id="accent" x1="41" y1="38" x2="85" y2="92" gradientUnits="userSpaceOnUse">
      <stop stop-color="#40f56e" />
      <stop offset="1" stop-color="#0fdf38" />
    </linearGradient>
    <radialGradient id="glow" cx="0" cy="0" r="1" gradientUnits="userSpaceOnUse" gradientTransform="translate(64 64) rotate(90) scale(42)">
      <stop stop-color="#0fdf38" stop-opacity=".22" />
      <stop offset="1" stop-color="#0fdf38" stop-opacity="0" />
    </radialGradient>
  </defs>
  <rect width="128" height="128" rx="30" fill="url(#bg)" />
  <rect x="10" y="10" width="108" height="108" rx="20" stroke="rgba(255,255,255,.08)" />
  <rect x="18" y="18" width="92" height="92" rx="18" fill="url(#glow)" />
  <circle cx="64" cy="64" r="31" stroke="rgba(255,255,255,.14)" stroke-width="2.5" />
  <path
    d="M64 31.5 88.5 96H76.5l-5.3-14.3H56.8L51.5 96h-12L64 31.5Zm-3.3 39.2h6.6L64 61l-3.3 9.7Z"
    fill="url(#accent)"
  />
  <path d="M50.2 75.5h27.6" stroke="#D8FFE1" stroke-width="4.5" stroke-linecap="round" />
  <circle cx="64" cy="20" r="5.5" fill="#0fdf38" />
  <circle cx="20" cy="64" r="5.5" fill="#0fdf38" />
  <circle cx="108" cy="64" r="5.5" fill="#0fdf38" />
  <circle cx="64" cy="108" r="5.5" fill="#0fdf38" />
</svg>
